<?xml version="1.0" standalone="no"?>
<!DOCTYPE svg PUBLIC "-//W3C//DTD SVG 20010904//EN"
 "http://www.w3.org/TR/2001/REC-SVG-20010904/DTD/svg10.dtd">
<svg version="1.0" xmlns="http://www.w3.org/2000/svg"
 width="1065.000000pt" height="1025.000000pt" viewBox="0 0 1065.000000 1025.000000"
 preserveAspectRatio="xMidYMid meet">

<g transform="translate(0.000000,1025.000000) scale(0.100000,-0.100000)"
fill="yellow" stroke="yellow" stroke-width="700">
<path d="M5265 10211 c-48 -22 -69 -44 -90 -94 -13 -32 -15 -155 -15 -992 0
-1022 -1 -994 48 -1048 77 -85 234 -69 289 29 l23 39 0 980 0 980 -23 39 c-43
76 -147 106 -232 67z"/>
<path d="M1628 8700 c-68 -20 -128 -98 -128 -166 0 -90 -18 -70 688 -777 367
-367 681 -677 698 -688 17 -10 52 -22 77 -25 65 -9 144 30 175 85 26 46 30
137 8 179 -8 15 -318 329 -688 699 -469 469 -684 677 -710 688 -40 16 -77 18
-120 5z"/>
<path d="M8900 8670 c-19 -10 -333 -317 -697 -682 -567 -569 -663 -669 -672
-703 -16 -60 -13 -96 12 -145 41 -83 135 -118 225 -85 40 15 138 108 695 664
356 355 660 663 674 684 59 85 33 215 -53 264 -50 29 -134 30 -184 3z"/>
<path d="M5195 7178 c-479 -24 -950 -195 -1337 -485 -124 -93 -334 -296 -428
-413 -208 -260 -366 -576 -445 -889 -61 -245 -83 -487 -66 -743 25 -363 82
-590 212 -837 67 -129 140 -234 281 -408 269 -332 365 -477 443 -668 42 -101
80 -241 90 -330 23 -212 44 -301 95 -410 61 -128 253 -375 325 -417 l40 -23
935 0 c767 0 941 2 967 14 54 22 220 220 304 361 64 108 98 219 120 393 50
392 148 595 488 1010 206 251 286 370 370 549 78 163 124 319 156 523 22 139
31 491 16 640 -59 603 -357 1167 -826 1562 -480 405 -1088 605 -1740 571z
m380 -372 c654 -78 1198 -417 1540 -961 155 -246 245 -513 281 -825 17 -157
17 -258 -1 -435 -43 -419 -148 -649 -477 -1042 -337 -402 -492 -722 -543
-1126 -26 -204 -59 -285 -177 -436 l-48 -61 -270 0 -270 0 6 57 c49 477 246
989 622 1613 155 257 489 761 523 788 29 23 39 71 21 98 -19 29 -53 36 -93 20
-22 -9 -59 -16 -84 -16 -38 0 -47 4 -68 33 -71 94 -74 147 -17 279 52 119 57
153 31 195 -23 37 -61 51 -97 34 -20 -9 -32 -27 -59 -88 -1 -2 -28 12 -61 30
-151 82 -333 11 -412 -162 -36 -78 -42 -186 -14 -259 l20 -53 -24 -16 c-63
-41 -141 -52 -233 -32 l-51 11 89 86 c73 72 93 97 110 145 66 181 -38 333
-224 331 -83 -1 -131 -19 -186 -71 -69 -64 -92 -124 -97 -254 -4 -95 -2 -112
21 -167 l25 -62 -47 -14 c-54 -16 -73 -9 -98 37 -15 27 -18 58 -17 207 0 190
9 243 64 405 69 201 85 282 81 398 -1 43 -37 87 -72 87 -32 0 -74 -35 -94 -77
-29 -60 -80 -313 -101 -495 l-7 -57 -26 18 c-46 32 -92 44 -156 43 -77 -1
-121 -19 -180 -73 -90 -83 -136 -200 -136 -346 l0 -93 -63 -45 c-99 -71 -135
-59 -157 53 -20 105 -8 207 37 296 61 125 57 217 -10 247 -60 28 -123 -55
-150 -200 -17 -89 -47 -127 -182 -236 -117 -93 -124 -101 -124 -135 0 -30 21
-53 61 -69 27 -10 165 -216 331 -491 431 -718 690 -1370 743 -1875 3 -33 9
-75 12 -92 l5 -33 -268 0 -269 0 -55 71 c-111 143 -143 220 -166 402 -20 164
-39 251 -86 385 -88 256 -235 500 -473 782 -300 356 -416 602 -460 979 -48
408 11 779 179 1126 162 334 392 596 711 809 397 266 911 388 1390 332z m-621
-1949 c49 -27 86 -93 86 -153 0 -92 -65 -239 -122 -276 -86 -55 -183 0 -209
119 -24 107 39 272 121 315 45 24 76 23 124 -5z m717 -6 c61 -62 27 -151 -95
-247 -44 -35 -86 -64 -92 -64 -28 0 -50 123 -34 192 24 101 72 147 153 148 29
0 46 -7 68 -29z m597 -11 c40 -38 55 -81 60 -171 5 -105 -18 -174 -63 -185
-39 -10 -122 3 -158 24 -72 42 -99 141 -61 230 42 101 163 156 222 102z
m-2058 -338 c0 -79 25 -145 69 -185 74 -67 174 -65 281 7 l71 47 42 -34 c55
-45 77 -56 133 -66 52 -10 137 6 179 33 31 20 95 87 95 98 0 20 18 5 33 -27
27 -57 69 -77 157 -73 59 3 89 10 141 34 59 28 68 30 90 18 62 -35 155 -56
249 -56 106 -1 168 16 237 63 l41 29 46 -21 c60 -26 171 -36 230 -19 27 7 60
27 81 48 l35 36 38 -37 c41 -40 78 -57 122 -57 29 0 26 -5 -124 -232 -278
-424 -408 -643 -556 -938 -217 -431 -343 -828 -375 -1177 l-7 -73 -177 0 -177
0 -13 108 c-78 659 -388 1385 -979 2291 -77 119 -91 146 -78 153 8 5 34 24 58
42 24 19 46 35 51 35 4 1 7 -21 7 -47z"/>
<path d="M137 5036 c-48 -18 -74 -41 -99 -90 -29 -56 -22 -141 16 -190 58 -76
-21 -71 1046 -71 913 0 957 1 993 19 45 22 72 58 88 118 24 90 -30 189 -118
216 -62 19 -1873 16 -1926 -2z"/>
<path d="M8615 5035 c-109 -38 -152 -187 -81 -280 57 -75 -16 -70 1016 -73
625 -2 937 0 961 7 133 39 174 221 71 314 -51 46 -43 46 -1012 46 -760 0 -922
-2 -955 -14z"/>
<path d="M4473 1420 c-62 -37 -82 -124 -43 -187 40 -66 -8 -63 917 -63 807 0
839 1 869 19 21 13 38 36 49 65 22 58 11 107 -35 151 l-31 30 -847 3 c-826 2
-848 2 -879 -18z"/>
<path d="M4466 1029 c-79 -62 -71 -185 15 -231 32 -17 79 -18 862 -18 901 0
860 -3 906 56 32 40 36 85 13 137 -36 82 26 77 -925 77 -841 0 -844 0 -871
-21z"/>
<path d="M4608 654 c-75 -40 -78 -188 -6 -238 20 -14 106 -16 743 -16 799 0
752 -4 781 66 29 68 12 141 -42 183 -27 21 -32 21 -738 21 -609 -1 -715 -3
-738 -16z"/>
<path d="M4993 281 c-49 -12 -83 -39 -99 -76 -18 -45 -17 -71 5 -121 33 -73
39 -74 440 -74 390 0 404 2 441 62 26 43 26 111 0 153 -36 59 -42 60 -415 62
-187 1 -355 -2 -372 -6z"/>
</g>
</svg>
