<?xml version="1.0" standalone="no"?>
<!DOCTYPE svg PUBLIC "-//W3C//DTD SVG 20010904//EN"
 "http://www.w3.org/TR/2001/REC-SVG-20010904/DTD/svg10.dtd">
<svg version="1.0"
    xmlns="http://www.w3.org/2000/svg" width="2764.000000pt" height="2696.000000pt" viewBox="0 0 2764.000000 2696.000000" preserveAspectRatio="xMidYMid meet">

    <g transform="translate(0.000000,2696.000000) scale(0.100000,-0.100000)" fill="#ffffff" stroke="none">
        <path d="M13820 26306 c-155 -34 -283 -153 -331 -307 -18 -59 -19 -133 -19
-2439 0 -2301 1 -2380 19 -2439 26 -85 61 -140 126 -199 175 -160 435 -160
610 0 65 59 100 114 126 199 18 59 19 138 19 2439 0 2306 -1 2380 -19 2439
-49 158 -186 280 -346 310 -72 14 -114 13 -185 -3z"/>
        <path d="M4656 22499 c-121 -30 -238 -129 -295 -248 -35 -74 -36 -80 -36 -191
0 -110 2 -118 34 -190 34 -75 43 -83 1695 -1738 914 -915 1684 -1678 1712
-1697 75 -50 159 -75 253 -75 178 0 327 90 404 245 39 76 50 135 45 234 -4 78
-9 99 -42 168 -38 77 -53 93 -1710 1749 -1649 1650 -1672 1672 -1749 1709 -70
35 -85 38 -175 41 -53 2 -114 -1 -136 -7z"/>
        <path d="M22920 22462 c-36 -9 -85 -29 -110 -44 -27 -16 -722 -704 -1700
-1682 -1299 -1299 -1662 -1667 -1686 -1711 -125 -225 -31 -511 205 -624 74
-35 79 -36 192 -36 113 0 116 1 195 39 79 38 89 48 1707 1665 896 894 1648
1652 1672 1684 203 267 55 654 -274 717 -74 14 -125 12 -201 -8z"/>
        <path d="M13695 18699 c-1082 -34 -2148 -360 -3065 -937 -398 -251 -709 -500
-1056 -846 -473 -474 -813 -941 -1103 -1516 -339 -672 -528 -1338 -603 -2130
-16 -173 -16 -823 0 -1025 82 -994 301 -1673 770 -2380 84 -127 304 -419 452
-600 63 -77 177 -216 253 -310 513 -628 780 -1077 950 -1600 83 -255 112 -396
157 -770 17 -137 42 -304 55 -370 86 -423 296 -786 769 -1328 131 -150 201
-206 295 -235 53 -16 198 -17 2351 -17 2223 0 2297 1 2350 19 115 39 151 69
316 256 370 422 583 757 693 1090 45 136 76 299 111 585 46 384 80 546 169
805 140 411 345 790 651 1200 105 140 168 220 450 565 230 281 414 522 528
690 429 636 663 1292 756 2115 31 275 40 454 40 815 0 385 -10 550 -55 855
-176 1211 -735 2338 -1599 3223 -500 513 -1039 904 -1675 1217 -271 134 -473
216 -770 315 -576 192 -1152 297 -1705 311 -107 2 -211 6 -230 7 -19 1 -134
-1 -255 -4z m550 -909 c734 -48 1408 -228 2040 -545 1332 -666 2296 -1848
2650 -3250 115 -453 151 -792 142 -1330 -10 -593 -74 -1016 -222 -1461 -158
-475 -393 -866 -870 -1449 -625 -763 -828 -1058 -1061 -1540 -239 -495 -360
-911 -424 -1460 -37 -326 -69 -454 -157 -633 -59 -120 -188 -314 -310 -464
l-95 -118 -674 0 -674 0 0 38 c0 20 7 97 15 170 102 915 411 1857 960 2928
370 724 859 1523 1631 2670 177 263 230 334 254 344 65 27 102 110 86 194 -9
48 -61 101 -114 117 -48 14 -64 11 -186 -36 -56 -21 -87 -26 -158 -26 -77 -1
-91 2 -117 23 -77 60 -175 225 -206 345 -26 102 0 203 124 471 103 224 120
303 86 386 -39 93 -145 166 -220 152 -69 -13 -145 -108 -184 -228 -14 -42 -22
-46 -42 -21 -26 32 -157 110 -230 138 -137 51 -323 44 -479 -18 -200 -81 -368
-254 -455 -469 -89 -220 -87 -493 5 -682 l30 -61 -33 -28 c-108 -94 -333 -145
-522 -118 -96 14 -237 50 -233 61 2 4 59 52 128 107 221 176 332 318 390 500
77 241 33 460 -125 618 -119 120 -250 169 -445 168 -176 -1 -301 -42 -422
-138 -118 -93 -216 -256 -265 -440 -24 -90 -26 -118 -26 -275 0 -157 2 -185
25 -271 15 -53 43 -131 64 -174 42 -87 44 -81 -46 -116 -88 -34 -163 -45 -200
-29 -119 49 -168 323 -141 790 22 375 49 504 201 960 149 445 180 579 180 770
0 215 -63 330 -181 330 -88 0 -179 -72 -239 -189 -67 -133 -194 -763 -245
-1221 -10 -85 -19 -156 -21 -158 -1 -2 -24 13 -51 32 -65 46 -162 91 -243 112
-91 23 -270 16 -360 -15 -247 -84 -434 -305 -539 -634 -59 -186 -70 -322 -48
-582 2 -26 -9 -37 -118 -122 -245 -190 -327 -203 -398 -61 -48 95 -60 198 -54
483 l4 250 60 102 c105 179 160 350 150 466 -10 111 -84 217 -163 232 -43 8
-107 -19 -162 -69 -83 -76 -164 -290 -195 -517 -13 -94 -15 -99 -64 -160 -54
-67 -203 -218 -286 -288 -27 -23 -108 -87 -180 -143 -173 -133 -205 -164 -218
-211 -30 -111 53 -216 171 -217 28 -1 31 -5 350 -500 878 -1363 1469 -2498
1856 -3567 271 -750 427 -1432 487 -2140 l3 -33 -667 0 -667 0 -95 117 c-122
151 -251 345 -310 464 -88 180 -120 308 -157 629 -65 561 -184 969 -429 1475
-228 470 -428 763 -991 1451 -431 527 -599 772 -770 1128 -269 556 -390 1170
-390 1969 0 466 38 790 141 1205 428 1731 1799 3122 3569 3622 570 161 1195
227 1775 190z m-1345 -4865 c103 -34 205 -147 245 -270 41 -124 22 -297 -55
-507 -63 -172 -167 -309 -277 -363 -194 -96 -420 51 -484 315 -53 223 54 588
220 743 106 99 219 126 351 82z m1791 -2 c56 -25 105 -80 120 -135 24 -89 -13
-238 -81 -326 -65 -85 -228 -224 -397 -342 -72 -49 -79 -48 -113 31 -32 75
-50 172 -50 275 0 264 108 463 277 510 64 19 188 12 244 -13z m1519 -52 c80
-47 152 -186 180 -345 14 -84 12 -249 -5 -329 -19 -92 -61 -182 -101 -216 -40
-35 -110 -47 -217 -37 -145 14 -235 49 -316 122 -222 200 -136 648 153 789
122 60 224 65 306 16z m-5130 -798 c0 -147 43 -339 97 -432 35 -61 98 -127
148 -157 58 -34 185 -64 270 -64 132 0 257 55 440 192 l110 83 76 -75 c83 -82
154 -129 257 -168 61 -24 80 -26 207 -26 127 0 146 2 207 26 140 53 248 136
346 267 l58 78 37 -79 c67 -141 143 -198 289 -218 150 -21 303 13 516 115
l114 55 46 -24 c160 -80 361 -138 545 -156 124 -12 270 -1 394 30 121 31 287
116 364 186 l25 24 68 -34 c177 -89 474 -119 648 -66 95 29 188 99 250 189
l17 23 61 -65 c112 -120 227 -177 356 -177 35 0 64 -2 64 -5 0 -2 -125 -193
-278 -422 -295 -443 -451 -683 -654 -1008 -888 -1423 -1411 -2580 -1653 -3659
-66 -295 -100 -520 -141 -913 l-5 -53 -449 0 -448 0 -7 73 c-40 440 -103 808
-211 1238 -297 1186 -887 2484 -1817 3999 -153 249 -474 751 -598 937 -38 56
-69 106 -69 111 0 5 46 41 103 80 56 39 125 91 152 116 28 25 53 45 58 46 4 0
7 -30 7 -67z"/>
        <path d="M940 13344 c-165 -45 -294 -192 -322 -368 -34 -220 99 -432 312 -497
64 -19 101 -19 2415 -17 l2350 3 68 32 c280 133 353 492 146 717 -26 28 -71
65 -100 83 -113 68 69 63 -2494 62 -2009 0 -2327 -2 -2375 -15z"/>
        <path d="M22128 13341 c-261 -84 -389 -379 -272 -627 33 -70 118 -162 181
-196 115 -63 -69 -58 2473 -56 l2315 3 76 36 c99 48 170 119 218 218 35 74 36
80 36 191 0 109 -2 119 -32 183 -36 76 -116 166 -181 204 -23 14 -70 34 -103
44 -59 18 -135 19 -2357 18 -2200 0 -2299 -1 -2354 -18z"/>
        <path d="M11841 4334 c-69 -18 -108 -43 -161 -100 -65 -70 -85 -123 -85 -224
0 -76 3 -92 33 -152 37 -76 82 -120 162 -157 l55 -26 2075 0 2075 0 56 26 c72
34 134 96 168 168 22 47 26 70 26 141 0 73 -4 93 -28 142 -34 69 -118 149
-184 174 -46 18 -127 19 -2093 21 -1768 2 -2052 0 -2099 -13z"/>
        <path d="M11829 3364 c-195 -60 -294 -286 -205 -468 33 -67 118 -147 183 -172
46 -18 128 -19 2077 -22 1324 -1 2049 1 2084 8 76 14 136 46 188 102 68 73 89
126 89 228 0 76 -3 92 -33 152 -37 76 -82 120 -162 157 l-55 26 -2060 2
c-1762 1 -2067 0 -2106 -13z"/>
        <path d="M12139 2404 c-66 -20 -132 -83 -171 -162 -30 -61 -33 -74 -33 -162 0
-83 4 -103 28 -155 32 -69 84 -127 142 -158 l40 -22 1775 0 1775 0 46 27 c59
35 105 87 138 158 22 47 26 69 26 150 0 88 -3 101 -33 162 -40 82 -105 142
-175 163 -74 22 -3487 21 -3558 -1z"/>
        <path d="M12984 1429 c-75 -28 -137 -88 -176 -167 -29 -59 -33 -76 -33 -147 0
-71 4 -88 33 -147 36 -73 87 -124 161 -160 l46 -23 905 0 905 0 46 23 c74 36
125 87 161 160 29 59 33 76 33 147 0 71 -4 88 -33 147 -39 80 -102 139 -178
168 -54 20 -74 20 -937 19 -854 0 -884 -1 -933 -20z"/>
    </g>
</svg>
